<mxfile host="app.diagrams.net" modified="2024-01-07T10:33:48.786Z" agent="Mozilla/5.0 (Windows NT 10.0; Win64; x64) AppleWebKit/537.36 (KHTML, like Gecko) Chrome/119.0.0.0 Safari/537.36 OPR/105.0.0.0" etag="hN5OfaLt0d_uQ30d0zve" version="22.1.17" type="device">
  <diagram name="Seite-1" id="bJPoKGKlhhXHd1jeIKPK">
    <mxGraphModel dx="987" dy="599" grid="1" gridSize="10" guides="1" tooltips="1" connect="1" arrows="1" fold="1" page="1" pageScale="1" pageWidth="827" pageHeight="1169" math="0" shadow="0">
      <root>
        <mxCell id="0" />
        <mxCell id="1" parent="0" />
        <mxCell id="VBildCac7Z0OxOP6IBXo-1" value="" style="shape=cube;whiteSpace=wrap;html=1;boundedLbl=1;backgroundOutline=1;darkOpacity=0.05;darkOpacity2=0.1;rotation=90;direction=east;flipH=0;" vertex="1" parent="1">
          <mxGeometry x="241" y="183" width="96" height="100" as="geometry" />
        </mxCell>
        <mxCell id="VBildCac7Z0OxOP6IBXo-2" value="" style="shape=cube;whiteSpace=wrap;html=1;boundedLbl=1;backgroundOutline=1;darkOpacity=0.05;darkOpacity2=0.1;rotation=90;size=58;" vertex="1" parent="1">
          <mxGeometry x="480.07" y="185.94" width="104" height="106.13" as="geometry" />
        </mxCell>
        <mxCell id="VBildCac7Z0OxOP6IBXo-3" value="" style="shape=cube;whiteSpace=wrap;html=1;boundedLbl=1;backgroundOutline=1;darkOpacity=0.05;darkOpacity2=0.1;rotation=90;size=80;" vertex="1" parent="1">
          <mxGeometry x="720.0699999999999" y="175.94" width="104" height="106.13" as="geometry" />
        </mxCell>
        <mxCell id="VBildCac7Z0OxOP6IBXo-4" value="Convolutional Layer" style="rounded=1;whiteSpace=wrap;html=1;rotation=-90;fillColor=#fff2cc;strokeColor=#d6b656;" vertex="1" parent="1">
          <mxGeometry x="320" y="210" width="180" height="60" as="geometry" />
        </mxCell>
        <mxCell id="VBildCac7Z0OxOP6IBXo-5" value="Convolutional Layer" style="rounded=1;whiteSpace=wrap;html=1;rotation=-90;fillColor=#fff2cc;strokeColor=#d6b656;" vertex="1" parent="1">
          <mxGeometry x="560" y="210" width="180" height="60" as="geometry" />
        </mxCell>
        <mxCell id="VBildCac7Z0OxOP6IBXo-6" value="Flatten" style="rounded=1;whiteSpace=wrap;html=1;rotation=-90;fillColor=#fff2cc;strokeColor=#d6b656;" vertex="1" parent="1">
          <mxGeometry x="840" y="210" width="180" height="60" as="geometry" />
        </mxCell>
        <mxCell id="VBildCac7Z0OxOP6IBXo-7" value="Fully Connected" style="rounded=1;whiteSpace=wrap;html=1;rotation=-90;fillColor=#fff2cc;strokeColor=#d6b656;" vertex="1" parent="1">
          <mxGeometry x="910" y="210" width="180" height="60" as="geometry" />
        </mxCell>
        <mxCell id="VBildCac7Z0OxOP6IBXo-8" value="Softmax" style="rounded=1;whiteSpace=wrap;html=1;rotation=-90;fillColor=#fff2cc;strokeColor=#d6b656;" vertex="1" parent="1">
          <mxGeometry x="980" y="210" width="180" height="60" as="geometry" />
        </mxCell>
        <mxCell id="VBildCac7Z0OxOP6IBXo-9" value="" style="rounded=1;whiteSpace=wrap;html=1;fillColor=none;strokeColor=#6c8ebf;strokeWidth=3;" vertex="1" parent="1">
          <mxGeometry x="210" y="135.94" width="640" height="214.06" as="geometry" />
        </mxCell>
        <mxCell id="VBildCac7Z0OxOP6IBXo-10" value="" style="rounded=1;whiteSpace=wrap;html=1;fillColor=none;strokeColor=#9673a6;strokeWidth=3;" vertex="1" parent="1">
          <mxGeometry x="870" y="135.94" width="260" height="214.06" as="geometry" />
        </mxCell>
        <mxCell id="VBildCac7Z0OxOP6IBXo-11" value="Feature Extraction" style="text;html=1;strokeColor=none;fillColor=none;align=center;verticalAlign=middle;whiteSpace=wrap;rounded=0;fontColor=#6C8EBF;fontSize=26;" vertex="1" parent="1">
          <mxGeometry x="210" y="370" width="640" height="40" as="geometry" />
        </mxCell>
        <mxCell id="VBildCac7Z0OxOP6IBXo-12" value="Classification" style="text;html=1;strokeColor=none;fillColor=none;align=center;verticalAlign=middle;whiteSpace=wrap;rounded=0;fontColor=#9673A6;fontSize=26;" vertex="1" parent="1">
          <mxGeometry x="870" y="370" width="260" height="40" as="geometry" />
        </mxCell>
        <mxCell id="VBildCac7Z0OxOP6IBXo-13" value="" style="endArrow=classic;html=1;rounded=0;" edge="1" parent="1">
          <mxGeometry width="50" height="50" relative="1" as="geometry">
            <mxPoint x="1150" y="320" as="sourcePoint" />
            <mxPoint x="1150" y="160" as="targetPoint" />
          </mxGeometry>
        </mxCell>
        <mxCell id="VBildCac7Z0OxOP6IBXo-14" value="" style="endArrow=classic;html=1;rounded=0;" edge="1" parent="1">
          <mxGeometry width="50" height="50" relative="1" as="geometry">
            <mxPoint x="1150" y="320" as="sourcePoint" />
            <mxPoint x="1310" y="320" as="targetPoint" />
          </mxGeometry>
        </mxCell>
        <mxCell id="VBildCac7Z0OxOP6IBXo-15" value="" style="rounded=0;whiteSpace=wrap;html=1;fillColor=#f8cecc;strokeColor=#b85450;" vertex="1" parent="1">
          <mxGeometry x="1150" y="175.94" width="20" height="14.06" as="geometry" />
        </mxCell>
        <mxCell id="VBildCac7Z0OxOP6IBXo-16" value="" style="rounded=0;whiteSpace=wrap;html=1;fillColor=#f8cecc;strokeColor=#b85450;" vertex="1" parent="1">
          <mxGeometry x="1150" y="199.94" width="140" height="14.06" as="geometry" />
        </mxCell>
        <mxCell id="VBildCac7Z0OxOP6IBXo-17" value="" style="rounded=0;whiteSpace=wrap;html=1;fillColor=#f8cecc;strokeColor=#b85450;" vertex="1" parent="1">
          <mxGeometry x="1150" y="223.94" width="40" height="14.06" as="geometry" />
        </mxCell>
        <mxCell id="VBildCac7Z0OxOP6IBXo-18" value="" style="rounded=0;whiteSpace=wrap;html=1;fillColor=#f8cecc;strokeColor=#b85450;" vertex="1" parent="1">
          <mxGeometry x="1150" y="247.94" width="30" height="14.06" as="geometry" />
        </mxCell>
        <mxCell id="VBildCac7Z0OxOP6IBXo-19" value="" style="rounded=0;whiteSpace=wrap;html=1;fillColor=#f8cecc;strokeColor=#b85450;" vertex="1" parent="1">
          <mxGeometry x="1150" y="271.94" width="50" height="14.06" as="geometry" />
        </mxCell>
        <mxCell id="VBildCac7Z0OxOP6IBXo-20" value="" style="rounded=0;whiteSpace=wrap;html=1;fillColor=#f8cecc;strokeColor=#b85450;" vertex="1" parent="1">
          <mxGeometry x="1150" y="295.94" width="20" height="14.06" as="geometry" />
        </mxCell>
        <mxCell id="VBildCac7Z0OxOP6IBXo-21" value="Class 6" style="text;html=1;strokeColor=none;fillColor=none;align=center;verticalAlign=middle;whiteSpace=wrap;rounded=0;fontColor=#808080;" vertex="1" parent="1">
          <mxGeometry x="1290" y="167.97" width="60" height="30" as="geometry" />
        </mxCell>
        <mxCell id="VBildCac7Z0OxOP6IBXo-22" value="Class 5" style="text;html=1;strokeColor=none;fillColor=none;align=center;verticalAlign=middle;whiteSpace=wrap;rounded=0;fontColor=#808080;" vertex="1" parent="1">
          <mxGeometry x="1290" y="192.97" width="60" height="30" as="geometry" />
        </mxCell>
        <mxCell id="VBildCac7Z0OxOP6IBXo-23" value="Class 4" style="text;html=1;strokeColor=none;fillColor=none;align=center;verticalAlign=middle;whiteSpace=wrap;rounded=0;fontColor=#808080;" vertex="1" parent="1">
          <mxGeometry x="1290" y="217.97" width="60" height="30" as="geometry" />
        </mxCell>
        <mxCell id="VBildCac7Z0OxOP6IBXo-24" value="Class 3" style="text;html=1;strokeColor=none;fillColor=none;align=center;verticalAlign=middle;whiteSpace=wrap;rounded=0;fontColor=#808080;" vertex="1" parent="1">
          <mxGeometry x="1290" y="242.97" width="60" height="30" as="geometry" />
        </mxCell>
        <mxCell id="VBildCac7Z0OxOP6IBXo-26" value="Class 2" style="text;html=1;strokeColor=none;fillColor=none;align=center;verticalAlign=middle;whiteSpace=wrap;rounded=0;fontColor=#808080;" vertex="1" parent="1">
          <mxGeometry x="1290" y="267.97" width="60" height="30" as="geometry" />
        </mxCell>
        <mxCell id="VBildCac7Z0OxOP6IBXo-27" value="Class 1" style="text;html=1;strokeColor=none;fillColor=none;align=center;verticalAlign=middle;whiteSpace=wrap;rounded=0;fontColor=#808080;" vertex="1" parent="1">
          <mxGeometry x="1290" y="292.97" width="60" height="30" as="geometry" />
        </mxCell>
        <mxCell id="VBildCac7Z0OxOP6IBXo-28" value="Input&lt;br&gt;Image" style="text;html=1;strokeColor=none;fillColor=none;align=center;verticalAlign=middle;whiteSpace=wrap;rounded=0;" vertex="1" parent="1">
          <mxGeometry x="240" y="205" width="80" height="75" as="geometry" />
        </mxCell>
        <mxCell id="VBildCac7Z0OxOP6IBXo-29" value="Embedding" style="text;html=1;strokeColor=none;fillColor=none;align=center;verticalAlign=middle;whiteSpace=wrap;rounded=0;rotation=-45;" vertex="1" parent="1">
          <mxGeometry x="490" y="177" width="80" height="75" as="geometry" />
        </mxCell>
        <mxCell id="VBildCac7Z0OxOP6IBXo-30" value="Embedding" style="text;html=1;strokeColor=none;fillColor=none;align=center;verticalAlign=middle;whiteSpace=wrap;rounded=0;rotation=-45;" vertex="1" parent="1">
          <mxGeometry x="736" y="180" width="73" height="75" as="geometry" />
        </mxCell>
      </root>
    </mxGraphModel>
  </diagram>
</mxfile>
